<svg fill="none" height="100%" viewBox="0 0 208 24" width="100%" xmlns="http://www.w3.org/2000/svg" data-v-1b9fce31=""><path d="M10.4726 9.81177H23.3947C29.1812 9.81177 32.3052 11.9647 32.3052 16.2706C32.3052 21.1059 29.3587 24 22.1167 24H0L4.72153 17.9294H22.6847C24.4242 17.9294 25.2052 17.4353 25.2052 16.2C25.2052 15 24.4242 14.5059 22.6847 14.5059H9.76257C3.65653 14.5059 0.852006 11.7882 0.852006 7.72941C0.852006 3.28235 3.83403 0.388235 11.0406 0.388235H31.6662L26.9447 6.52941H10.4726C8.76856 6.52941 7.95206 6.95294 7.95206 8.15294C7.95206 9.35294 8.76856 9.81177 10.4726 9.81177Z" fill="currentColor" data-v-1b9fce31=""></path><path d="M71.3911 24H43.7719L48.2094 17.9294H54.1735C55.5935 17.9294 57.262 17.9294 58.398 18C57.759 17.1529 56.765 15.7059 55.984 14.5765L51.7239 8.32941L40.5769 24H31.8793L47.1089 2.64706C48.1029 1.27059 49.5584 0 51.866 0C54.067 0 55.5225 1.16471 56.552 2.64706L71.3911 24Z" fill="currentColor" data-v-1b9fce31=""></path><path d="M81.2844 17.9294H99.6735L94.9165 24H73.9358V0.388235H81.2844V17.9294Z" fill="currentColor" data-v-1b9fce31=""></path><path d="M133.394 9.24706C133.394 14.4706 129.098 17.9647 121.714 17.9647H109.289V24H101.976V11.9294H122.424C124.696 11.9294 126.01 10.8353 126.01 9.21176C126.01 7.55294 124.696 6.52941 122.424 6.52941H101.976L106.84 0.388235H121.75C129.098 0.388235 133.394 3.98823 133.394 9.24706Z" fill="currentColor" data-v-1b9fce31=""></path><path d="M165.884 0.388235V24H158.571V14.8941H144.441V24H137.057V0.388235H144.441V8.75294H158.571V0.388235H165.884Z" fill="currentColor" data-v-1b9fce31=""></path><path d="M208 24H180.381L184.818 17.9294H190.782C192.202 17.9294 193.871 17.9294 195.007 18C194.368 17.1529 193.374 15.7059 192.593 14.5765L188.333 8.32941L177.186 24H168.488L183.718 2.64706C184.712 1.27059 186.167 0 188.475 0C190.676 0 192.131 1.16471 193.161 2.64706L208 24Z" fill="currentColor" data-v-1b9fce31=""></path></svg>